<svg xmlns="http://www.w3.org/2000/svg" viewBox="0 0 453.13 83.53"><title>logo-pool</title><g id="Layer_1" data-name="Layer 1"><path d="M54.37,83.5h11.8V19.7H52.67L33.13,47.16,13.57,19.71H0v63.8H11.78V37.13L31.7,64.91H34l20.34-27.7V83.5Zm93.76-11.87h-35V57.23h33.84V46H101.38V83.49h46.75Zm88.87,11-18.9-21.8c11.88-2.47,15.82-11.3,15.82-20.12,0-11.1-7.77-21.13-22.5-21.22-9.9.1-19.82,0-29.73,0v64h11.77V62.15H204.8L223,83.5h14v-.82Zm-25.58-51.9c7.4,0,10.7,5.13,10.7,10.24s-3.2,10.23-10.7,10.23H193.47V30.79ZM278,83.53v-64H266.23v64Zm54.42,0h11.78v-53H364V19.53H312.56v11h19.82Z" style="fill:#fff"/><path d="M101.3,19.53H148V31H101.3Z" style="fill:#30afe6"/></g><g id="Layer_3" data-name="Layer 3"><path d="M373.72,2.74c-1.85-1.67-4.6-2.51-8.18-2.51A40.42,40.42,0,0,0,359,.74L357.69,1V30.51H364V19c4.23.21,7.89-.93,10.06-3.24a9,9,0,0,0,2.4-6.52A8.37,8.37,0,0,0,373.72,2.74Zm-3.56,6.63c0,3.28-2.68,4-4.92,4-.47,0-.88,0-1.24-.05V5.91q.66-.06,1.62-.06C368.63,5.85,370.16,7,370.16,9.37Z" style="fill:#30afe6"/><path d="M403.11,14.46c0,8.81-5.36,13.48-11.9,13.48-6.76,0-11.51-5.24-11.51-13,0-8.13,5.06-13.45,11.89-13.45C398.59,1.5,403.11,6.86,403.11,14.46Zm-19.87.41c0,5.48,3,10.38,8.17,10.38s8.2-4.83,8.2-10.64c0-5.09-2.66-10.41-8.17-10.41S383.24,9.25,383.24,14.87Z" style="fill:#fff;stroke:#fffdfd;stroke-miterlimit:10;stroke-width:3px"/><path d="M431.19,14.46c0,8.81-5.36,13.48-11.89,13.48-6.77,0-11.52-5.24-11.52-13,0-8.13,5.06-13.45,11.9-13.45S431.19,6.86,431.19,14.46Zm-19.87.41c0,5.48,3,10.38,8.17,10.38s8.2-4.83,8.2-10.64c0-5.09-2.66-10.41-8.17-10.41S411.32,9.25,411.32,14.87Z" style="fill:#fff;stroke:#fffdfd;stroke-miterlimit:10;stroke-width:3px"/><path d="M437.39,1.92h3.3V24.75h10.94v2.78H437.39Z" style="fill:#fff;stroke:#fffdfd;stroke-miterlimit:10;stroke-width:3px"/></g></svg>