<svg version="1.1" id="Layer_1" xmlns="http://www.w3.org/2000/svg" xmlns:xlink="http://www.w3.org/1999/xlink" x="0px" y="0px"
	 viewBox="0 0 14 14" style="enable-background:new 0 0 14 14;" xml:space="preserve">
<style type="text/css">
	.st0{clip-path:url(#SVGID_2_);}
	.st1{clip-path:url(#SVGID_4_);fill:#FFFFFF;}
</style>
<g>
	<defs>
		<path id="SVGID_1_" d="M10,14v-3c0-1.7-1.3-3-3-3s-3,1.3-3,3v3H1c-0.6,0-1-0.4-1-1V5.5c0-0.3,0.2-0.6,0.4-0.8l6-4.3
			c0.3-0.2,0.8-0.2,1.2,0l6,4.3C13.8,4.9,14,5.2,14,5.5V13c0,0.6-0.4,1-1,1H10z"/>
	</defs>
	<clipPath id="SVGID_2_">
		<use xlink:href="#SVGID_1_"  style="overflow:visible;"/>
	</clipPath>
	<g class="st0">
		<defs>
			<rect id="SVGID_3_" x="-30" y="-48" width="1200" height="800"/>
		</defs>
		<clipPath id="SVGID_4_">
			<use xlink:href="#SVGID_3_"  style="overflow:visible;"/>
		</clipPath>
		<rect x="-5" y="-4.8" class="st1" width="24" height="23.8"/>
	</g>
</g>
</svg>
