<?xml version="1.0" encoding="utf-8"?>
<!-- Generator: Adobe Illustrator 22.0.1, SVG Export Plug-In . SVG Version: 6.00 Build 0)  -->
<svg version="1.1" id="Layer_1" xmlns="http://www.w3.org/2000/svg" xmlns:xlink="http://www.w3.org/1999/xlink" x="0px" y="0px"
	 viewBox="0 0 15 15" style="enable-background:new 0 0 15 15;" xml:space="preserve">
<style type="text/css">
	.st0{clip-path:url(#SVGID_2_);}
	.st1{clip-path:url(#SVGID_4_);fill:#FFFFFF;}
</style>
<g>
	<defs>
		<path id="SVGID_1_" d="M7.5,6c1.1,0,2-0.9,2-2s-0.9-2-2-2s-2,0.9-2,2S6.4,6,7.5,6z M7.5,7C6.7,7,6,7.7,6,8.5v3
			C6,12.3,6.7,13,7.5,13S9,12.3,9,11.5v-3C9,7.7,8.3,7,7.5,7z M7.5,0C11.6,0,15,3.4,15,7.5c0,4.1-3.4,7.5-7.5,7.5
			C3.4,15,0,11.6,0,7.5C0,3.4,3.4,0,7.5,0z"/>
	</defs>
	<clipPath id="SVGID_2_">
		<use xlink:href="#SVGID_1_"  style="overflow:visible;"/>
	</clipPath>
	<g class="st0">
		<defs>
			<rect id="SVGID_3_" x="-30" y="-738" width="1200" height="800"/>
		</defs>
		<clipPath id="SVGID_4_">
			<use xlink:href="#SVGID_3_"  style="overflow:visible;"/>
		</clipPath>
		<rect x="-5" y="-5" class="st1" width="25" height="25"/>
	</g>
</g>
</svg>
