<?xml version="1.0" encoding="UTF-8"?>
<svg width="20px" height="14px" viewBox="0 0 20 14" version="1.1" xmlns="http://www.w3.org/2000/svg" xmlns:xlink="http://www.w3.org/1999/xlink">
    <!-- Generator: Sketch 49 (51002) - http://www.bohemiancoding.com/sketch -->
    <title>Combined Shape</title>
    <desc>Created with Sketch.</desc>
    <defs></defs>
    <g id="Screens" stroke="none" stroke-width="1" fill="none" fill-rule="evenodd">
        <g id="backup" transform="translate(-27.000000, -300.000000)" fill="#FFFFFF">
            <g id="Side-Panel">
                <g id="users" transform="translate(27.000000, 300.000000)">
                    <path d="M13.2196819,11.9196025 C13.2474354,12.174253 13.2610659,12.3581579 13.2610659,12.3581579 C13.2610659,12.8558056 12.8414629,13.2610659 12.3238564,13.2610659 L1.67795033,13.2610659 C1.16034377,13.2610659 0.740740741,12.8558056 0.740740741,12.3581579 C0.740740741,12.3581579 0.841765337,10.9951253 1.05374887,10.5523417 C1.31242018,10.0120385 4.32065629,8.44555625 7.00090334,8.44555625 C8.40555284,8.44555625 9.90028591,8.87579721 11.0421216,9.36309326 C11.8663815,8.88970001 13.2895517,8.34236676 14.6025294,8.34236676 C16.5169915,8.34236676 18.6657316,9.50603927 18.8504968,9.90740741 C19.0019136,10.2363323 19.0740741,11.2488708 19.0740741,11.2488708 C19.0740741,11.618552 18.7743576,11.9196025 18.4046387,11.9196025 L13.2196819,11.9196025 Z M14.6025294,5.65943993 C13.614703,5.65943993 12.8139115,4.85864842 12.8139115,3.87082204 C12.8139115,2.88299566 13.614703,2.08220416 14.6025294,2.08220416 C15.5903557,2.08220416 16.3911472,2.88299566 16.3911472,3.87082204 C16.3911472,4.85864842 15.5903557,5.65943993 14.6025294,5.65943993 Z M7.00090334,5.55625043 C5.67113706,5.55625043 4.5931485,4.47826187 4.5931485,3.14849559 C4.5931485,1.8187293 5.67113706,0.740740741 7.00090334,0.740740741 C8.33066963,0.740740741 9.40865819,1.8187293 9.40865819,3.14849559 C9.40865819,4.47826187 8.33066963,5.55625043 7.00090334,5.55625043 Z" id="Combined-Shape"></path>
                </g>
            </g>
        </g>
    </g>
</svg>
